<?xml version="1.0" encoding="UTF-8" standalone="no"?>
<!-- Created with Inkscape (http://www.inkscape.org/) -->

<svg
   width="210mm"
   height="297mm"
   viewBox="0 0 210 297"
   version="1.1"
   id="svg5"
   inkscape:version="1.1 (c68e22c387, 2021-05-23)"
   sodipodi:docname="image3.svg"
   xmlns:inkscape="http://www.inkscape.org/namespaces/inkscape"
   xmlns:sodipodi="http://sodipodi.sourceforge.net/DTD/sodipodi-0.dtd"
   xmlns="http://www.w3.org/2000/svg"
   xmlns:svg="http://www.w3.org/2000/svg">
  <sodipodi:namedview
     id="namedview7"
     pagecolor="#ffffff"
     bordercolor="#666666"
     borderopacity="1.0"
     inkscape:pageshadow="2"
     inkscape:pageopacity="0.0"
     inkscape:pagecheckerboard="0"
     inkscape:document-units="mm"
     showgrid="false"
     inkscape:zoom="0.55981979"
     inkscape:cx="502.84038"
     inkscape:cy="540.35245"
     inkscape:window-width="1920"
     inkscape:window-height="1017"
     inkscape:window-x="-8"
     inkscape:window-y="-8"
     inkscape:window-maximized="1"
     inkscape:current-layer="layer1" />
  <defs
     id="defs2" />
  <g
     inkscape:label="Layer 1"
     inkscape:groupmode="layer"
     id="layer1">
    <rect
       style="fill:#bd0b0b;fill-rule:evenodd;stroke-width:0.264583;fill-opacity:1"
       id="rect143"
       width="211.32692"
       height="128.15263"
       x="0"
       y="77.105766" />
    <rect
       style="fill:#6c0000;fill-opacity:1;stroke-width:0.281041"
       id="rect2542"
       width="211.6839"
       height="31.413462"
       x="-0.35697117"
       y="173.84496" />
    <g
       id="g16521">
      <ellipse
         style="fill:#d46911;fill-opacity:1;stroke-width:0.264583"
         id="path5560"
         cx="137.07692"
         cy="141.1821"
         rx="11.066106"
         ry="9.8167067" />
      <path
         style="fill:none;stroke:#d46911;stroke-width:5;stroke-linecap:butt;stroke-linejoin:miter;stroke-opacity:1;stroke-miterlimit:4;stroke-dasharray:none;fill-opacity:1"
         d="m 137.07692,146.35817 c 0.71395,21.0613 0.35697,21.41827 0.35697,21.41827 l 8.92428,14.63582 2.4988,13.92187 v 0.71395"
         id="path6865" />
      <path
         style="fill:none;stroke:#d46911;stroke-width:5;stroke-linecap:butt;stroke-linejoin:miter;stroke-opacity:1;stroke-miterlimit:4;stroke-dasharray:none"
         d="m 137.43389,167.77644 -12.49399,8.21034 3.21274,18.91947 v 0 0.35697"
         id="path8448" />
      <path
         style="fill:none;stroke:#d46911;stroke-width:5;stroke-linecap:butt;stroke-linejoin:miter;stroke-opacity:1;stroke-miterlimit:4;stroke-dasharray:none;fill-opacity:1"
         d="m 119.22837,158.49519 9.63822,-3.21274 9.28125,2.14183 18.91947,5.71154 8.21033,5.71154 v 0"
         id="path10515" />
    </g>
    <g
       id="g16531"
       transform="rotate(174.49059,116.74571,135.63732)">
      <ellipse
         style="fill:#d46911;fill-opacity:1;stroke-width:0.264583"
         id="ellipse16523"
         cx="137.07692"
         cy="141.1821"
         rx="11.066106"
         ry="9.8167067" />
      <path
         style="fill:none;fill-opacity:1;stroke:#d46911;stroke-width:5;stroke-linecap:butt;stroke-linejoin:miter;stroke-miterlimit:4;stroke-dasharray:none;stroke-opacity:1"
         d="m 137.07692,146.35817 c 0.71395,21.0613 0.35697,21.41827 0.35697,21.41827 l 8.92428,14.63582 2.4988,13.92187 v 0.71395"
         id="path16525" />
      <path
         style="fill:none;stroke:#d46911;stroke-width:5;stroke-linecap:butt;stroke-linejoin:miter;stroke-miterlimit:4;stroke-dasharray:none;stroke-opacity:1"
         d="m 137.43389,167.77644 -12.49399,8.21034 3.21274,18.91947 v 0 0.35697"
         id="path16527" />
      <path
         style="fill:none;fill-opacity:1;stroke:#d46911;stroke-width:5;stroke-linecap:butt;stroke-linejoin:miter;stroke-miterlimit:4;stroke-dasharray:none;stroke-opacity:1"
         d="m 119.22837,158.49519 9.63822,-3.21274 9.28125,2.14183 18.91947,5.71154 8.21033,5.71154 v 0"
         id="path16529" />
    </g>
    <g
       id="g21954"
       transform="rotate(-34.377671,29.45037,-3.9328081)">
      <path
         style="fill:none;stroke:#ddc15d;stroke-width:5;stroke-linecap:butt;stroke-linejoin:miter;stroke-miterlimit:4;stroke-dasharray:none;stroke-opacity:1"
         d="m 31.552091,139.33403 0.504833,34.32868"
         id="path16566" />
      <path
         style="fill:none;stroke:#ddc15d;stroke-width:5;stroke-linecap:butt;stroke-linejoin:miter;stroke-miterlimit:4;stroke-dasharray:none;stroke-opacity:1"
         d="m 24.987981,148.85697 15.706729,0.35697 v 0 h -0.713941"
         id="path18756" />
    </g>
    <path
       style="fill:none;stroke:#d46911;stroke-width:6.25286;stroke-linecap:butt;stroke-linejoin:miter;stroke-miterlimit:4;stroke-dasharray:none;stroke-opacity:1"
       d="m 133.28695,133.58734 -2.03775,13.70557"
       id="path21989" />
    <path
       style="fill:none;stroke:#6c0000;stroke-width:3;stroke-linecap:butt;stroke-linejoin:miter;stroke-opacity:1;stroke-miterlimit:4;stroke-dasharray:none"
       d="m 133.28695,133.58734 c -0.8433,0.41297 -1.73307,0.74217 -2.5299,1.23892 -0.38368,0.23919 0.90427,0 1.3564,0 0.38152,0 1.77428,0.19798 2.17024,0 0.13263,-0.0663 0.55922,-0.52592 0.81385,-0.27128 0.17574,0.17574 0.21016,2.89615 0,3.52664 -0.11478,0.34434 -1.36449,0.81384 -1.62769,0.81384 -1.7181,0 -3.43621,0 -5.15432,0 -0.0316,0 -2.98408,-0.51735 -2.98408,-0.27128 0,0.0904 0.19604,-0.0502 0.27128,0 0.48177,0.32118 0.89319,0.73771 1.3564,1.08512 0.61422,0.46066 1.24701,1.30171 1.89896,1.62768 0.46152,0.23076 0.55066,-0.26318 1.08512,0.27128 0.0639,0.0639 0,0.18085 0,0.27128 0.0904,0.0904 0.16898,0.19455 0.27128,0.27128 0.35067,0.263 1.29378,0.75121 1.62768,1.08512 0.37284,0.37284 0.52137,0.91768 0.81384,1.3564 1.5848,2.3772 -1.81576,1.50953 -2.98408,1.89896 -0.42437,0.14146 -2.04295,0.66985 -2.44152,0.27128 -0.28085,-0.28084 0.71687,-0.89117 0.81384,-1.08512 0.0809,-0.16176 -0.15585,-0.6343 0,-0.54256 1.10988,0.65338 2.13663,1.43867 3.20495,2.15801"
       id="path26179" />
    <rect
       style="fill:#6c0000;fill-opacity:1;stroke:#6c0000;stroke-width:3;stroke-miterlimit:4;stroke-dasharray:none;stroke-opacity:1"
       id="rect27515"
       width="14.106569"
       height="48.287876"
       x="29.298262"
       y="135.09753" />
    <ellipse
       style="fill:#6c0000;fill-opacity:1;stroke:#6c0000;stroke-width:3;stroke-miterlimit:4;stroke-dasharray:none;stroke-opacity:1"
       id="path28753"
       cx="22.380617"
       cy="134.14806"
       rx="13.69965"
       ry="12.343248" />
    <ellipse
       style="fill:#6c0000;fill-opacity:1;stroke:#6c0000;stroke-width:3;stroke-miterlimit:4;stroke-dasharray:none;stroke-opacity:1"
       id="path28755"
       cx="39.335629"
       cy="114.75152"
       rx="14.649131"
       ry="17.361933" />
    <circle
       style="fill:#6c0000;fill-opacity:1;stroke:#6c0000;stroke-width:3;stroke-miterlimit:4;stroke-dasharray:none;stroke-opacity:1"
       id="path28757"
       cx="22.244976"
       cy="117.7356"
       r="10.851208" />
    <ellipse
       style="fill:#6c0000;fill-opacity:1;stroke:#6c0000;stroke-width:3;stroke-miterlimit:4;stroke-dasharray:none;stroke-opacity:1"
       id="path28759"
       cx="56.833199"
       cy="141.20134"
       rx="13.69965"
       ry="12.614529" />
    <ellipse
       style="fill:#6c0000;fill-opacity:1;stroke:#6c0000;stroke-width:3;stroke-miterlimit:4;stroke-dasharray:none;stroke-opacity:1"
       id="path28761"
       cx="48.287876"
       cy="131.43526"
       rx="11.665048"
       ry="12.614529" />
    <ellipse
       style="fill:#6c0000;fill-opacity:1;stroke:#6c0000;stroke-width:3;stroke-miterlimit:4;stroke-dasharray:none;stroke-opacity:1"
       id="path28763"
       cx="59.546001"
       cy="122.34737"
       rx="7.7314854"
       ry="7.3245654" />
  </g>
</svg>
